<mxfile host="app.diagrams.net" agent="Mozilla/5.0 (Windows NT 10.0; Win64; x64) AppleWebKit/537.36 (KHTML, like Gecko) Chrome/128.0.0.0 YaBrowser/24.10.0.0 Safari/537.36" version="24.8.8">
  <diagram name="Страница — 1" id="FZuVYSKQKKseB5JXQPXO">
    <mxGraphModel dx="1386" dy="783" grid="1" gridSize="10" guides="1" tooltips="1" connect="1" arrows="1" fold="1" page="1" pageScale="1" pageWidth="827" pageHeight="1169" math="0" shadow="0">
      <root>
        <mxCell id="0" />
        <mxCell id="1" parent="0" />
        <mxCell id="6BPBLCMizLLzq73NnSz2-1" value="Начало" style="strokeWidth=2;html=1;shape=mxgraph.flowchart.terminator;whiteSpace=wrap;" parent="1" vertex="1">
          <mxGeometry x="360" y="40" width="130" height="40" as="geometry" />
        </mxCell>
        <mxCell id="rngy8vZI5L_hg_P6Utqn-1" value="" style="edgeStyle=orthogonalEdgeStyle;rounded=0;orthogonalLoop=1;jettySize=auto;html=1;" parent="1" source="rngy8vZI5L_hg_P6Utqn-2" target="rngy8vZI5L_hg_P6Utqn-5" edge="1">
          <mxGeometry relative="1" as="geometry" />
        </mxCell>
        <mxCell id="rngy8vZI5L_hg_P6Utqn-2" value="Начало" style="strokeWidth=2;html=1;shape=mxgraph.flowchart.terminator;whiteSpace=wrap;" parent="1" vertex="1">
          <mxGeometry x="360" y="40" width="130" height="40" as="geometry" />
        </mxCell>
        <mxCell id="rngy8vZI5L_hg_P6Utqn-3" value="Конец" style="strokeWidth=2;html=1;shape=mxgraph.flowchart.terminator;whiteSpace=wrap;" parent="1" vertex="1">
          <mxGeometry x="377.5" y="980" width="130" height="40" as="geometry" />
        </mxCell>
        <mxCell id="rngy8vZI5L_hg_P6Utqn-4" value="" style="edgeStyle=orthogonalEdgeStyle;rounded=0;orthogonalLoop=1;jettySize=auto;html=1;" parent="1" source="rngy8vZI5L_hg_P6Utqn-5" target="rngy8vZI5L_hg_P6Utqn-9" edge="1">
          <mxGeometry relative="1" as="geometry" />
        </mxCell>
        <mxCell id="rngy8vZI5L_hg_P6Utqn-5" value="Ввод: ID CWE" style="shape=parallelogram;perimeter=parallelogramPerimeter;whiteSpace=wrap;html=1;fixedSize=1;" parent="1" vertex="1">
          <mxGeometry x="340" y="120" width="170" height="60" as="geometry" />
        </mxCell>
        <mxCell id="rngy8vZI5L_hg_P6Utqn-6" value="" style="edgeStyle=orthogonalEdgeStyle;rounded=0;orthogonalLoop=1;jettySize=auto;html=1;" parent="1" edge="1">
          <mxGeometry relative="1" as="geometry">
            <mxPoint x="442.5" y="961" as="sourcePoint" />
            <mxPoint x="442.5" y="981" as="targetPoint" />
          </mxGeometry>
        </mxCell>
        <mxCell id="rngy8vZI5L_hg_P6Utqn-7" value="Вывод пустого значения" style="shape=parallelogram;perimeter=parallelogramPerimeter;whiteSpace=wrap;html=1;fixedSize=1;" parent="1" vertex="1">
          <mxGeometry x="382.5" y="900" width="120" height="60" as="geometry" />
        </mxCell>
        <mxCell id="rngy8vZI5L_hg_P6Utqn-8" value="" style="edgeStyle=orthogonalEdgeStyle;rounded=0;orthogonalLoop=1;jettySize=auto;html=1;" parent="1" source="rngy8vZI5L_hg_P6Utqn-9" target="rngy8vZI5L_hg_P6Utqn-11" edge="1">
          <mxGeometry relative="1" as="geometry" />
        </mxCell>
        <mxCell id="rngy8vZI5L_hg_P6Utqn-9" value="ПО обращается датасет CWE" style="rounded=0;whiteSpace=wrap;html=1;" parent="1" vertex="1">
          <mxGeometry x="317.5" y="230" width="215" height="60" as="geometry" />
        </mxCell>
        <mxCell id="rngy8vZI5L_hg_P6Utqn-10" style="edgeStyle=orthogonalEdgeStyle;rounded=0;orthogonalLoop=1;jettySize=auto;html=1;exitX=0;exitY=0.5;exitDx=0;exitDy=0;entryX=0.5;entryY=0;entryDx=0;entryDy=0;" parent="1" source="rngy8vZI5L_hg_P6Utqn-11" target="rngy8vZI5L_hg_P6Utqn-12" edge="1">
          <mxGeometry relative="1" as="geometry" />
        </mxCell>
        <mxCell id="rngy8vZI5L_hg_P6Utqn-11" value="ID CWE найден?" style="rhombus;whiteSpace=wrap;html=1;" parent="1" vertex="1">
          <mxGeometry x="340" y="320" width="172.5" height="80" as="geometry" />
        </mxCell>
        <mxCell id="rngy8vZI5L_hg_P6Utqn-12" value="Вывод сообщения об ошибке поиска" style="rounded=0;whiteSpace=wrap;html=1;" parent="1" vertex="1">
          <mxGeometry x="250" y="480" width="120" height="60" as="geometry" />
        </mxCell>
        <mxCell id="rngy8vZI5L_hg_P6Utqn-13" value="" style="edgeStyle=orthogonalEdgeStyle;rounded=0;orthogonalLoop=1;jettySize=auto;html=1;" parent="1" source="rngy8vZI5L_hg_P6Utqn-14" target="rngy8vZI5L_hg_P6Utqn-25" edge="1">
          <mxGeometry relative="1" as="geometry" />
        </mxCell>
        <mxCell id="rngy8vZI5L_hg_P6Utqn-14" value="ПО сопоставляет CWE и CVE" style="rounded=0;whiteSpace=wrap;html=1;" parent="1" vertex="1">
          <mxGeometry x="530" y="571" width="120" height="60" as="geometry" />
        </mxCell>
        <mxCell id="rngy8vZI5L_hg_P6Utqn-15" value="" style="edgeStyle=orthogonalEdgeStyle;rounded=0;orthogonalLoop=1;jettySize=auto;html=1;" parent="1" source="rngy8vZI5L_hg_P6Utqn-16" target="rngy8vZI5L_hg_P6Utqn-26" edge="1">
          <mxGeometry relative="1" as="geometry" />
        </mxCell>
        <mxCell id="rngy8vZI5L_hg_P6Utqn-16" value="Получение ID CVE" style="rounded=0;whiteSpace=wrap;html=1;" parent="1" vertex="1">
          <mxGeometry x="542.5" y="791" width="95" height="60" as="geometry" />
        </mxCell>
        <mxCell id="rngy8vZI5L_hg_P6Utqn-17" value="Нет" style="text;html=1;align=center;verticalAlign=middle;whiteSpace=wrap;rounded=0;" parent="1" vertex="1">
          <mxGeometry x="300" y="330" width="60" height="30" as="geometry" />
        </mxCell>
        <mxCell id="rngy8vZI5L_hg_P6Utqn-33" style="edgeStyle=orthogonalEdgeStyle;rounded=0;orthogonalLoop=1;jettySize=auto;html=1;exitX=0.25;exitY=1;exitDx=0;exitDy=0;entryX=0.5;entryY=0;entryDx=0;entryDy=0;" parent="1" source="rngy8vZI5L_hg_P6Utqn-19" target="rngy8vZI5L_hg_P6Utqn-31" edge="1">
          <mxGeometry relative="1" as="geometry">
            <Array as="points">
              <mxPoint x="590" y="360" />
            </Array>
          </mxGeometry>
        </mxCell>
        <mxCell id="rngy8vZI5L_hg_P6Utqn-19" value="Да" style="text;html=1;align=center;verticalAlign=middle;whiteSpace=wrap;rounded=0;" parent="1" vertex="1">
          <mxGeometry x="497.5" y="330" width="60" height="30" as="geometry" />
        </mxCell>
        <mxCell id="rngy8vZI5L_hg_P6Utqn-20" style="edgeStyle=orthogonalEdgeStyle;rounded=0;orthogonalLoop=1;jettySize=auto;html=1;exitX=0.5;exitY=1;exitDx=0;exitDy=0;entryX=0;entryY=0.5;entryDx=0;entryDy=0;entryPerimeter=0;" parent="1" source="rngy8vZI5L_hg_P6Utqn-12" target="rngy8vZI5L_hg_P6Utqn-3" edge="1">
          <mxGeometry relative="1" as="geometry" />
        </mxCell>
        <mxCell id="rngy8vZI5L_hg_P6Utqn-21" value="" style="edgeStyle=orthogonalEdgeStyle;rounded=0;orthogonalLoop=1;jettySize=auto;html=1;" parent="1" source="rngy8vZI5L_hg_P6Utqn-22" target="rngy8vZI5L_hg_P6Utqn-14" edge="1">
          <mxGeometry relative="1" as="geometry" />
        </mxCell>
        <mxCell id="rngy8vZI5L_hg_P6Utqn-22" value="&lt;div&gt;Результат&lt;/div&gt;Galeax-CVE2CAPEC" style="rounded=0;whiteSpace=wrap;html=1;" parent="1" vertex="1">
          <mxGeometry x="522.5" y="481" width="137.5" height="60" as="geometry" />
        </mxCell>
        <mxCell id="rngy8vZI5L_hg_P6Utqn-23" value="" style="edgeStyle=orthogonalEdgeStyle;rounded=0;orthogonalLoop=1;jettySize=auto;html=1;" parent="1" source="rngy8vZI5L_hg_P6Utqn-25" target="rngy8vZI5L_hg_P6Utqn-16" edge="1">
          <mxGeometry relative="1" as="geometry" />
        </mxCell>
        <mxCell id="rngy8vZI5L_hg_P6Utqn-24" style="edgeStyle=orthogonalEdgeStyle;rounded=0;orthogonalLoop=1;jettySize=auto;html=1;exitX=0;exitY=0.5;exitDx=0;exitDy=0;entryX=0.5;entryY=0;entryDx=0;entryDy=0;" parent="1" source="rngy8vZI5L_hg_P6Utqn-25" edge="1">
          <mxGeometry relative="1" as="geometry">
            <mxPoint x="442.5" y="901" as="targetPoint" />
          </mxGeometry>
        </mxCell>
        <mxCell id="rngy8vZI5L_hg_P6Utqn-25" value="ID CVE найден?" style="rhombus;whiteSpace=wrap;html=1;" parent="1" vertex="1">
          <mxGeometry x="503.75" y="666" width="172.5" height="80" as="geometry" />
        </mxCell>
        <mxCell id="rngy8vZI5L_hg_P6Utqn-26" value="Вывод: ID CVE" style="shape=parallelogram;perimeter=parallelogramPerimeter;whiteSpace=wrap;html=1;fixedSize=1;" parent="1" vertex="1">
          <mxGeometry x="530" y="901" width="120" height="60" as="geometry" />
        </mxCell>
        <mxCell id="rngy8vZI5L_hg_P6Utqn-27" style="edgeStyle=orthogonalEdgeStyle;rounded=0;orthogonalLoop=1;jettySize=auto;html=1;entryX=1;entryY=0.5;entryDx=0;entryDy=0;entryPerimeter=0;" parent="1" source="rngy8vZI5L_hg_P6Utqn-26" edge="1">
          <mxGeometry relative="1" as="geometry">
            <Array as="points">
              <mxPoint x="590" y="1001" />
            </Array>
            <mxPoint x="507.5" y="1001" as="targetPoint" />
          </mxGeometry>
        </mxCell>
        <mxCell id="rngy8vZI5L_hg_P6Utqn-28" value="Да" style="text;html=1;align=center;verticalAlign=middle;whiteSpace=wrap;rounded=0;" parent="1" vertex="1">
          <mxGeometry x="577.5" y="746" width="60" height="30" as="geometry" />
        </mxCell>
        <mxCell id="rngy8vZI5L_hg_P6Utqn-29" value="Нет" style="text;html=1;align=center;verticalAlign=middle;whiteSpace=wrap;rounded=0;" parent="1" vertex="1">
          <mxGeometry x="460" y="681" width="60" height="30" as="geometry" />
        </mxCell>
        <mxCell id="rngy8vZI5L_hg_P6Utqn-34" value="" style="edgeStyle=orthogonalEdgeStyle;rounded=0;orthogonalLoop=1;jettySize=auto;html=1;" parent="1" source="rngy8vZI5L_hg_P6Utqn-31" target="rngy8vZI5L_hg_P6Utqn-22" edge="1">
          <mxGeometry relative="1" as="geometry" />
        </mxCell>
        <mxCell id="rngy8vZI5L_hg_P6Utqn-31" value="&lt;div&gt;&lt;span style=&quot;background-color: initial;&quot;&gt;Galeax-CVE2CAPEC&lt;/span&gt;&lt;span style=&quot;background-color: initial;&quot;&gt;&amp;nbsp;обновляет датасет CVE&lt;/span&gt;&lt;br&gt;&lt;/div&gt;" style="rounded=0;whiteSpace=wrap;html=1;" parent="1" vertex="1">
          <mxGeometry x="516.25" y="390" width="150" height="60" as="geometry" />
        </mxCell>
      </root>
    </mxGraphModel>
  </diagram>
</mxfile>
